<svg width="68" height="42" viewBox="0 0 68 42" fill="none" xmlns="http://www.w3.org/2000/svg">
<path d="M2.50846 6.44458H1.84008C0.823723 6.44458 -3.8147e-06 7.21632 -3.8147e-06 8.16798C-3.8147e-06 9.11964 0.823723 9.89138 1.84008 9.89138H2.50846C3.52429 9.89138 4.34857 9.11964 4.34857 8.16798C4.34857 7.21632 3.52455 6.44458 2.50846 6.44458Z" fill="#111111"/>
<path d="M17.811 9.89138C18.827 9.89138 19.6513 9.11964 19.6513 8.16798C19.6513 7.21632 18.827 6.44458 17.811 6.44458H7.59915C6.58332 6.44458 5.75907 7.21632 5.75907 8.16798C5.75907 9.11964 6.58332 9.89138 7.59915 9.89138H17.811Z" fill="#111111"/>
<path d="M8.73414 3.49416H9.39493C10.4115 3.49416 11.235 2.72242 11.235 1.77101C11.235 0.818863 10.4115 0.0473633 9.39493 0.0473633H8.73414C7.71779 0.0473633 6.89406 0.819109 6.89406 1.77101C6.89406 2.72242 7.71779 3.49416 8.73414 3.49416Z" fill="#111111"/>
<path d="M19.8235 0.0473633H14.4861C13.4695 0.0473633 12.6457 0.819109 12.6457 1.77101C12.6457 2.72267 13.4695 3.49416 14.4861 3.49416H19.8235C20.8398 3.49416 21.6635 2.72242 21.6635 1.77101C21.6635 0.818863 20.8398 0.0473633 19.8235 0.0473633Z" fill="#111111"/>
<path d="M9.40307 12.843H8.73414C7.71779 12.843 6.89406 13.6148 6.89406 14.5667C6.89406 15.5183 7.71779 16.2898 8.73414 16.2898H9.40307C10.4194 16.2898 11.2432 15.5181 11.2432 14.5667C11.2432 13.6148 10.4194 12.843 9.40307 12.843Z" fill="#111111"/>
<path d="M19.8235 12.843H14.494C13.4776 12.843 12.6539 13.6148 12.6539 14.5667C12.6539 15.5183 13.4776 16.2898 14.494 16.2898H19.8235C20.8398 16.2898 21.6635 15.5181 21.6635 14.5667C21.6635 13.6148 20.8398 12.843 19.8235 12.843Z" fill="#111111"/>
<path d="M66.8458 21.6551L58.014 12.608C57.6658 12.2506 57.1724 12.0471 56.6557 12.0471H46.214V4.7234C46.214 3.7715 45.3903 3 44.374 3H10.8401C9.82373 3 9 3.77174 9 4.7234C9 5.67506 9.82373 6.4468 10.8401 6.4468H42.5336V33.8905H26.6635C25.8686 31.3897 23.3932 29.5606 20.4688 29.5606C17.5444 29.5606 15.0685 31.3897 14.2744 33.8905H10.8401C9.82373 33.8905 9 34.662 9 35.6136C9 36.5658 9.82373 37.337 10.8401 37.337H14.2744C15.0685 39.8373 17.5444 41.6667 20.4688 41.6667C23.3932 41.6667 25.8686 39.8373 26.6635 37.337H44.3737H48.7356C49.5305 39.8373 52.0065 41.6667 54.9303 41.6667C57.8553 41.6667 60.3307 39.8373 61.1253 37.337H65.4875C66.5039 37.337 67.3276 36.5655 67.3276 35.6136V22.8179C67.3281 22.388 67.1557 21.9729 66.8458 21.6551ZM20.4688 38.2204C18.9344 38.2204 17.6861 37.0512 17.6861 35.6139C17.6861 34.1768 18.9344 33.0074 20.4688 33.0074C22.0032 33.0074 23.2515 34.177 23.2515 35.6139C23.2518 37.0512 22.0032 38.2204 20.4688 38.2204ZM54.9306 38.2204C53.3962 38.2204 52.1479 37.0512 52.1479 35.6139C52.1479 34.1768 53.3965 33.0074 54.9306 33.0074C56.4655 33.0074 57.7138 34.177 57.7138 35.6139C57.7141 37.0512 56.4655 38.2204 54.9306 38.2204ZM61.1258 33.8907C60.3312 31.3899 57.8558 29.5608 54.9309 29.5608C52.0067 29.5608 49.531 31.3899 48.7362 33.8907H46.2143V15.4942H55.8454L61.3124 21.0947H50.8893C49.8735 21.0947 49.0498 21.8665 49.0498 22.8181C49.0498 23.7703 49.8735 24.5415 50.8893 24.5415H63.6479V33.8905H61.1258V33.8907Z" fill="#111111"/>
</svg>
